<svg xmlns="http://www.w3.org/2000/svg" width="500" viewBox="0 0 375 375" height="500" version="1.0"><defs><clipPath id="a"><path d="M18.035 86h275.25v241H18.035Zm0 0"/></clipPath><clipPath id="b"><path d="M236.617 40h101.25v133.25h-101.25Zm0 0"/></clipPath></defs><g clip-path="url(#a)"><path d="M160.512 253.348v14.613l12.402 4.543V257.89Zm0-28.528v14.614l12.402 4.546v-14.613Zm61.949-16.972-27.25 17.699v73.047a326.752 326.752 0 0 1 27.25 4.222Zm-61.95-11.532v14.594l12.403 4.547v-14.598Zm-77.35-4.097-27.263 17.695V311.22c8.715-2.797 17.836-5.215 27.262-7.235Zm102.03-15.367v14.593l12.407 4.551v-14.594Zm-24.68-9.055v14.613l12.403 4.547v-14.613Zm24.68-19.469v14.617l12.407 4.528v-14.594Zm-24.68-9.05v14.609l12.403 4.547v-14.618Zm24.68-19.47v14.618l12.407 4.543v-14.614Zm-24.68-9.058v14.617l12.403 4.543v-14.613Zm-16.464-13.996-27.262 17.695V298.5c8.988-.953 18.09-1.59 27.262-1.855Zm5.7-10.54 58.429 21.415v90.277l-27.063 17.586v81.871c2.778.164 5.578.38 8.36.617v-75.543l38.71-25.125 32.97 21.415v94.351c11.57 4.008 22.335 8.64 32.077 13.856H18.094c9.746-5.176 20.511-9.793 32.066-13.762V206.82l38.711-25.136 22.188 14.398v-84.719Zm0 0" fill-rule="evenodd"/></g><g clip-path="url(#b)"><path fill="#545454" d="M337.457 106.938c-.004-6.516-5.09-11.825-11.504-12.22h-61.2l-2.687-13.21c-2.66-12.145 5.051-24.192 17.196-26.856 12.14-2.66 24.191 5.051 26.851 17.196l1.399 7.172a4.085 4.085 0 0 0 4.863 3.113l4.875-1.067a4.088 4.088 0 0 0 3.117-4.87l-1.398-7.173c-4.219-19.23-23.297-31.445-42.528-27.226-19.23 4.219-31.445 23.297-27.226 42.527l2.113 10.395h-2.453c-6.773.004-12.262 5.496-12.258 12.27l.012 53.812c0 6.773 5.496 12.262 12.27 12.258l76.312-.04c6.773-.003 12.262-5.496 12.258-12.269Zm-47.059 29.046.008 15.243-5.558.003-.008-15.242c-3.05-1.133-5.242-4.043-5.242-7.492a8.015 8.015 0 0 1 8.015-8.02 8.015 8.015 0 0 1 8.02 8.012c.004 3.446-2.184 6.364-5.235 7.496Zm0 0"/></g></svg>