<svg xmlns="http://www.w3.org/2000/svg" width="500" viewBox="0 0 375 375" height="500" version="1.0"><defs><clipPath id="a"><path d="M61.406 29.563H350.2V209H61.406Zm0 0"/></clipPath><clipPath id="b"><path d="M229 139h121.2v77H229Zm0 0"/></clipPath><clipPath id="c"><path d="M24.7 132H119v103H24.7Zm0 0"/></clipPath><clipPath id="d"><path d="M131.152 212H186v133.504h-54.848Zm0 0"/></clipPath></defs><path fill="#fff" d="M-37.5-37.5h450v450h-450z"/><path d="M247.152 297.324a5.76 5.76 0 0 1-2.902-.758c-1.824-1.046-2.871-3-2.871-5.351V198.3h7.234v90.98l80.477-46.465c1.465-.847 2.523-2.789 2.523-3.683V136.852h7.227v102.28c0 3.65-2.637 7.923-6.13 9.942l-81.577 47.098c-1.328.765-2.692 1.152-3.98 1.152M84.492 203.414c-1.039 0-2.027-.25-2.91-.762-1.812-1.047-2.86-2.996-2.86-5.347V104.39h7.227v90.976l80.485-46.465c1.453-.843 2.515-2.785 2.515-3.691V42.94h7.227v102.27c0 3.656-2.633 7.93-6.125 9.953l-81.586 47.094c-1.328.77-2.688 1.156-3.973 1.156"/><g clip-path="url(#a)"><path d="m350.262 139.45-120.293 69.433L61.953 99.793l121.16-70.238 167.149 109.894"/></g><g clip-path="url(#b)"><path d="M350.262 139.45v6.359l-120.293 69.476v-6.402l120.293-69.434"/></g><path fill="#545454" d="M229.953 208.89v6.41l-5.07-3.484-1.625-1.132-3.227-2.18-9.996-6.777-5.992-4.079-2-1.28-1.012-.677-4.117-2.66-4.8-3.09-6.137-3.957-1.528-.968-1.234-.801-1.563-1.004-.066-.043-.637-.418-5.742-3.64-1.941-1.243-9.207-5.906h-.02l-1.32-.848-4.555-2.902-3.21-2.035-11.7-7.477-2.344-1.508-78.98-50.484v-6.922s42.48 27.563 84.699 54.977c1.176.761 2.332 1.52 3.508 2.265 3.992 2.594 7.972 5.168 11.906 7.723.574.371 1.133.766 1.707 1.133.145.105.29.183.43.293a582.972 582.972 0 0 1 6.265 4.07h.024c.02 0 .043 0 .043.024.925.601 1.847 1.195 2.754 1.812h.02c.187.121.374.25.558.375 1.113.703 2.203 1.398 3.277 2.098a1062.75 1062.75 0 0 0 5.5 3.586h.02c.308.207.617.386.925.593 2.079 1.344 4.102 2.66 6.102 3.961.016 0 .016.02.035.02.824.55 1.649 1.07 2.453 1.586 1.547 1.031 3.067 2 4.531 2.969 4.961 3.21 9.536 6.19 13.614 8.832 11.91 7.726 19.531 12.668 19.652 12.789"/><path d="M112.633 260.16c-.145 1.14-1.192 3.067-4.695 3.016-.524-.004-1.32-.266-1.766-.543a3.7 3.7 0 0 1-1.262-1.371l-28.57-53.754 3.129-8.711 32.941 60.242c.188.34.266.734.223 1.121"/><path d="M91.441 156.375v4.926a23.55 23.55 0 0 1-.668 5.586 23.822 23.822 0 0 1-.722 2.422l-10.582 29.488-3.13 8.71-28.57 79.61c-.003 0-.003.004-.003.012l-.13.36c-.238.507-.699.995-1.398 1.39-2.101 1.21-5.508 1.21-7.617 0-1.21-.703-1.719-1.649-1.539-2.567l.008-.015.18-.5c.003-.008.003-.008.011-.016v-.008l42.2-117.964a22.736 22.736 0 0 0 1.148-4.664c.164-1.098.242-2.211.242-3.32v-2.61a268.026 268.026 0 0 1 4.863 2.969c.02.011.043.02.047.027l.008.008.668-.453 4.207-2.86.777-.531"/><path d="M85.781 160.21a268.265 268.265 0 0 0-4.91-2.995c-.789-.48-1.39-.824-1.512-.863a2.888 2.888 0 0 0-1.32-.098c4.832-1.371 7.672 3.812 7.742 3.957M45.16 166.063v9.425c0 .266-.086.465-.242.582h-.008c-.207.164-.558.149-.945-.082l-1.63-.937-9.448-5.457c-.668-.38-1.203-1.223-1.203-1.883v-9.43c0-.336.136-.55.351-.652.223-.086.516-.05.852.144l11.078 6.395c.66.379 1.195 1.227 1.195 1.894"/><path d="M96.531 152.258a2.648 2.648 0 0 1-1.02 1.355l-.359.246-3.71 2.508v.008l-.778.531-4.207 2.86-.668.453-.008-.008c0-.008-.011-.016-.027-.043-.23-.422-2.3-3.914-5.77-4.129-.609-.039-1.257.02-1.945.215-.008 0-.012 0-.027.008-.489.078-.805.277-.852.304L44.918 176.07c.156-.125.242-.316.242-.582v-9.425c0-.668-.535-1.516-1.195-1.895l-11.078-6.395c-.336-.195-.63-.23-.852-.144l31.895-17.285a29.897 29.897 0 0 1 4.008-1.805c.085-.031.171-.066.257-.094a27.73 27.73 0 0 1 6.77-1.52c1.898-.171 3.812-.195 5.242.302a32.18 32.18 0 0 1 7.125 3.46c3.285 2.16 5.606 4.598 7.184 6.692a25.135 25.135 0 0 1 1.804 2.738c.383.672.438 1.446.211 2.14M66.055 235.617 47.398 288.04c-.007.008-.007.016-.007.024l-.13.351c-.234.516-.695.996-1.39 1.399-2.101 1.203-5.512 1.203-7.613 0-1.219-.711-1.727-1.657-1.551-2.567l.008-.023c.035-.164.101-.336.18-.493.007-.007.007-.015.015-.023v-.008l20.219-56.98a499.776 499.776 0 0 0 8.926 5.898"/><path d="M209.371 224.563c-.238.703-.797 1.296-1.902 1.542l-7.332.098c-1.68.04-3.32.426-4.82 1.164l-16.782 8.266-9.945 4.894-5.512 2.72-4.402 2.155-1.2.59-7.39 3.637-2.395 1.18-1.843.906-15.68 7.719c-5.125 2.632-11.074 3.285-16.617 1.671-10.992-3.203-24.684-11.78-35.258-17.945-4.004-2.324-8.211-4.941-12.238-7.543a529.704 529.704 0 0 1-8.926-5.898 663.704 663.704 0 0 1-9.652-6.64 6.702 6.702 0 0 1-2.817-5.45v-1.707c.207-1.742 1.082-3.29 2.25-4.613-.015.011-.015.011-.015.027l-.235 1.8c-.058.423-.078.86-.008 1.266.282 1.707 1.5 2.871 3.028 3.946 5.613 3.941 18.78 13.047 30.238 19.722 10.394 6.051 23.84 14.477 34.637 17.614 5.433 1.578 11.27.949 16.3-1.641l15.157-7.629 12.863-6.465 3.672-1.851 16.387-8.239 7.953-4.007 8.008-3.797a10.753 10.753 0 0 1 3.812-1.004c1.965-.121 5.078-.238 8.316.07.383.043.735.156 1.055.332l.024.012c1.074.59 1.703 1.87 1.27 3.097"/><path fill="#545454" d="M208.078 221.453a2.603 2.603 0 0 0-1.055-.324c-3.238-.316-6.351-.2-8.316-.078a10.508 10.508 0 0 0-3.812 1.004l-8.008 3.797-56.024 28.191c-5.031 2.59-10.883 3.227-16.316 1.64-10.79-3.136-24.234-11.562-34.621-17.613-11.465-6.683-24.633-15.773-30.246-19.73-1.528-1.067-2.746-2.23-3.035-3.93a4.458 4.458 0 0 1 .015-1.27l.242-1.804c0-.016 0-.024.008-.027 1.055-1.2 2.43-2.36 3.774-3.364 1.238-.918 61.23-30.816 78.16-39.238l79.234 52.746"/><path d="M207.152 315.871c-.14 1.14-1.18 3.07-4.695 3.02-.523-.008-1.316-.274-1.762-.543a3.697 3.697 0 0 1-1.261-1.371l-28.57-53.758 3.124-8.711 32.942 60.246c.187.336.265.73.222 1.117"/><g clip-path="url(#c)"><path d="M118.617 230.371c.04.887-.062 1.606-.234 2.188a3.934 3.934 0 0 1-.524 1.136l-.129.172c-.832 1.063-1.937 1.113-1.937 1.113s-15.328-.152-42.117-15.628c-16.414-9.48-25.512-19.637-30.09-26.075a34.734 34.734 0 0 1-4.273-8.09 33.07 33.07 0 0 1-.883-2.68l-5.242-18.519-8.481-29.91c-.05-.762.11-1.234.387-1.5.324-.293.816-.344 1.37-.242 1.563.285 3.606 1.742 3.606 1.742 21.73 15.328 47.075 30.227 64.293 37.352 17.266 7.14 16.813 12.797 16.813 12.797l7.441 46.144"/></g><path d="M120.262 228.234c.054 1.793-.383 2.887-.942 3.555l-1.46 1.906c.206-.308.394-.68.523-1.136.172-.582.273-1.301.234-2.188l-7.441-46.144s.453-5.657-16.813-12.797c-17.218-7.125-42.562-22.024-64.293-37.352 0 0-2.043-1.457-3.605-1.742-.555-.102-1.047-.05-1.371.242l1.449-1.89.137-.18c1.183-1.297 5.023 1.433 5.023 1.433a471.283 471.283 0 0 0 22.715 15.047h.008a437.773 437.773 0 0 0 12.867 7.723 377.32 377.32 0 0 0 8.117 4.547C82.93 163.344 89.97 166.8 96 169.3c17.262 7.14 16.82 12.797 16.82 12.797l7.442 46.136"/><g clip-path="url(#d)"><path d="M185.96 212.09v4.922c0 1.886-.222 3.765-.667 5.586a22.397 22.397 0 0 1-.723 2.425l-10.582 29.485-3.125 8.71-28.57 79.61c-.008.008-.008.008-.008.016l-.129.36c-.238.507-.695.995-1.398 1.39-2.102 1.21-5.504 1.21-7.606 0-1.218-.703-1.73-1.656-1.55-2.567l.007-.015.18-.5c.008-.008.008-.008.016-.024l42.199-117.965c.543-1.511.93-3.082 1.144-4.668.168-1.105.247-2.207.247-3.32v-2.61c1.753 1.04 4.449 2.712 4.859 2.97.023.015.043.023.05.027l.008.008.665-.45 4.21-2.863.774-.527"/></g><path d="M180.305 215.922c-.18-.113-3.07-1.906-4.91-2.996-.79-.48-1.391-.824-1.516-.86a2.811 2.811 0 0 0-1.316-.093c4.832-1.368 7.671 3.808 7.742 3.949M139.684 221.773v9.43c0 .266-.086.465-.246.578h-.004c-.211.168-.563.153-.95-.078l-1.625-.937-9.449-5.457c-.668-.38-1.207-1.227-1.207-1.895v-9.418c0-.332.137-.555.352-.644.222-.094.523-.059.855.132l11.074 6.399c.66.379 1.2 1.222 1.2 1.89"/><path d="M191.05 207.973a2.63 2.63 0 0 1-1.015 1.355l-.36.242-3.714 2.512v.008l-.774.527-4.21 2.863-.665.45-.007-.008c0-.004-.016-.012-.028-.043-.23-.422-2.304-3.914-5.773-4.129a5.717 5.717 0 0 0-1.941.223h-.032c-.484.078-.8.28-.851.308v.008l-32.243 19.492c.16-.12.247-.312.247-.578v-9.43c0-.668-.54-1.511-1.2-1.89l-11.074-6.399c-.332-.191-.633-.226-.855-.14l31.898-17.285a29.97 29.97 0 0 1 4.008-1.809c.086-.027.172-.063.258-.094a27.74 27.74 0 0 1 6.765-1.52c1.903-.171 3.817-.19 5.243.302a32.182 32.182 0 0 1 7.125 3.464c3.285 2.157 5.609 4.594 7.183 6.688a26.43 26.43 0 0 1 1.809 2.738c.379.676.437 1.45.207 2.145"/><path d="M106.91 219.129v2.516c0 .632.238 1.234.66 1.699 1.657 1.828 6.34 6.36 12.34 6.676 6.805.359 12.395-.66 15.32-2.387.532-.317.852-.883.852-1.492v-4.024c0-.5-.215-.98-.586-1.316-.637-.582-1.887-1.48-4.152-2.41a1.32 1.32 0 0 0-1.504.386c-.805.946-2.754 2.446-7.149 2.508 0 0-7.937.496-11.414-2.773l-3.16-.43a1.054 1.054 0 0 0-1.207 1.047M38.445 176.047c-1.312-1.297-2.539-2.918-3.172-4.672l-.3-1.078v-.008l-1.785-6.3-.516.745c-.402.43-.758.891-1.074 1.332-1.22 1.75-1.828 3.86-1.828 5.989v2.937c0 1.656.515 3.293 1.535 4.598 2.242 2.89 5.597 4.637 8.008 5.597 1.742.696 2.98.977 2.98.977v-6.324l-3.848-3.793"/></svg>