<svg xmlns="http://www.w3.org/2000/svg" width="500" viewBox="0 0 375 375" height="500" version="1.0"><defs><clipPath id="a"><path d="M111 67.2h89V70h-89Zm0 0"/></clipPath><clipPath id="b"><path d="M76 117h113v190.95H76Zm0 0"/></clipPath><clipPath id="c"><path d="M180 192h157.3v115.95H180Zm0 0"/></clipPath></defs><path fill="#fff" d="M-37.5-37.5h450v450h-450z"/><g clip-path="url(#a)"><path d="M111.813 67.25h87.234v2.598h-87.234Zm0 0"/></g><path d="M199.047 84.668V82.07H173.05a30.126 30.126 0 0 1 3.515 2.598ZM111.813 82.07v2.598h25.472a30.126 30.126 0 0 1 3.516-2.598ZM64.95 74.66h180.96v2.598H64.95ZM102.441 92.914v2.598h26.778c.39-.887.824-1.754 1.297-2.598ZM213.504 95.512v-2.598h-30.168c.473.844.906 1.711 1.297 2.598ZM213.504 110.332v-2.598h-26.309c0 .875-.043 1.743-.12 2.598ZM102.441 107.734v2.598h24.336a30.05 30.05 0 0 1-.12-2.598ZM42.773 100.324v2.598h84.262c.137-.879.317-1.742.531-2.598ZM273.172 102.922v-2.598h-86.887c.215.856.395 1.719.531 2.598Zm0 0"/><g clip-path="url(#b)"><path d="m167.777 135.992 1.157 19.192-19.051-18.008c-9.551-2.29-17.352-9.113-20.996-18.07-9.883-3.91-25.262-.614-34.09 15.695-12.246 22.949-16.649 38.48-18 65.781.5 18.938 12.094 23.742 22.7 25.652 1 .27 2.042.438 3.112.496 3.633.52 6.582.73 8.95.043h37.324l5.367 67.094c.64 7.996 7.32 14.059 15.195 14.059.407 0 .82-.016 1.235-.051 8.398-.672 14.664-8.035 13.992-16.445l-6.496-81.153c-.633-7.941-7.254-14.058-15.207-14.058h-41.887c1.711-8.82 4.445-17.637 7.352-25.852l-20.47-18.633c-5.128-4.668-5.507-12.648-.847-17.78a12.595 12.595 0 0 1 9.309-4.122c3.133 0 6.133 1.16 8.453 3.273l34.562 31.458 29.301-5.368-2.078-34.515a9.728 9.728 0 0 0-1.863-5.157 30.478 30.478 0 0 1-17.024 16.47Zm0 0"/></g><path d="M180.172 189.027c1.398 0 2.808-.3 4.129-.918 1.562-.73 2.844-1.855 3.8-3.203l-13.374 2.453a9.756 9.756 0 0 0 5.445 1.668ZM218.73 164.633l9.825-6.406-1.778-2.73-10.48 6.831a12.52 12.52 0 0 1 2.433 2.305ZM203.785 184.027l-3.05-1.39h-.255l-4.777.879v4.011h69.434v-4.89h-48.668c-2.13 1.59-4.735 2.523-7.489 2.523-1.796 0-3.546-.383-5.195-1.133Zm0 0"/><g clip-path="url(#c)"><path d="M337.3 192.078H180.536v6.11h8.953v10.796h6.614v98.133h7.933v-14.875h109.77v14.875h7.933v-98.133h6.614v-10.797h8.949Zm0 0"/></g><path d="M73.348 299.27a6.92 6.92 0 0 0-3.852-6.204l29.586-9.113v9.106a6.922 6.922 0 0 0-3.867 6.21c0 3.825 3.097 6.926 6.918 6.926 3.82 0 6.918-3.101 6.918-6.925a6.927 6.927 0 0 0-3.867-6.211v-9.106l29.586 9.113a6.923 6.923 0 0 0-3.848 6.204c0 3.824 3.094 6.925 6.914 6.925s6.918-3.101 6.918-6.925a6.923 6.923 0 0 0-3.863-6.211v-4.5l-35.707-11v-25.73h5.187v-2.165c18.125-1.195 31.738-6.258 31.738-12.32 0-5.875-57.09-6.785-74.785-2.73l-13.683-36.489c5.836 9.113 11.847 14.281 15.898 12.758 6.5-2.442-21.605-77.387-28.105-74.942-5.301 1.993-5.598 14.82-1.325 30.704a3.037 3.037 0 0 0-1.472.156 3.056 3.056 0 0 0-1.785 3.933l25.46 67.887c.067.188.16.36.262.524 2.383 5.242 15.028 9.44 31.32 10.515v2.164h5.188v25.73l-35.703 11v4.505a6.917 6.917 0 0 0-3.867 6.207 6.92 6.92 0 0 0 6.918 6.925c3.82.004 6.918-3.097 6.918-6.921ZM122.992 135.184c-3.992-3.63-10.168-3.336-13.797.66-3.629 3.992-3.332 10.18.657 13.812l39.164 35.645a9.738 9.738 0 0 0 8.324 2.383l43.68-8.004 3.925 1.789c4.91 2.234 10.7.058 12.93-4.856 2.234-4.918.063-10.715-4.848-12.949l-6.714-3.055a9.76 9.76 0 0 0-5.797-.714l-41.938 7.683ZM289.125 151.547l-2.965.719 1.957 8.097h3.14ZM303.777 141.605l-3.035-.34-2.125 19.098h3.074ZM287.352 163.176h16.074v24.648h-16.074ZM156.926 135.2c15.168 0 27.465-12.31 27.465-27.497s-12.297-27.5-27.465-27.5-27.465 12.313-27.465 27.5c0 15.188 12.297 27.496 27.465 27.496Zm7.61-30.93c0-2.7 2.187-4.887 4.882-4.887a4.885 4.885 0 0 1 4.883 4.887 4.884 4.884 0 1 1-9.766 0Zm0 0"/></svg>